<svg width="183" height="35" viewBox="0 0 183 35" fill="none" xmlns="http://www.w3.org/2000/svg">
<g filter="url(#filter0_d_0_195)">
<path d="M67.0859 0.174407C36.8372 -0.639979 14.0344 3.81006 13.0164 11.285C12.4929 15.1242 26.1048 21.6975 34.365 23.1808C27.0064 24.6351 17.1465 25.4204 4.81439 25.3913L4 26.0021C37.1862 27.7472 60.1927 24.8969 61.1816 16.8693C61.8214 11.6631 44.3121 5.67152 44.3121 5.67152L43.585 5.84603C43.585 5.84603 50.2164 8.98724 50.2164 13.0883C50.2164 17.451 45.2719 20.8249 35.5866 22.9191C29.1296 20.5922 25.3486 17.7419 25.4067 14.6589C25.5231 7.4748 40.4147 1.86135 66.6496 1.10514L67.0859 0.174407Z" fill="black"/>
<path d="M74.0082 21.1449C74.9098 21.1449 75.8696 20.4178 76.1605 19.5161L76.7422 17.7419H82.7919L80.1451 25.8276H61.2397L69.6745 0.0581055H88.5799L86.3403 6.89313H80.2906L80.3778 6.63137C80.6687 5.72973 80.1742 5.00259 79.3017 5.00259H76.5095H76.4804C75.5788 5.00259 74.648 5.75881 74.3572 6.63137L70.1398 19.5452C69.849 20.3887 70.3434 21.174 71.2451 21.174H74.0082V21.1449Z" fill="black"/>
<path d="M89.1325 0.116455H95.9093L97.3345 8.493L103.471 0.116455H110.539L98.6433 16.2878L95.6185 25.8569H89.0161L91.8955 16.2878L89.1325 0.116455Z" fill="black"/>
<path d="M145.267 20.9704H135.174C135.174 20.9704 133.197 20.8832 133.778 19.0508L135 15.3279H145.82L147.39 10.5288H136.541C136.541 10.5288 137.181 8.60922 137.85 6.57325C138.49 4.59546 140.439 4.79906 140.439 4.79906H149.252L150.822 0H133.226L124.791 25.7695H143.696L145.267 20.9704ZM158.181 17.8583C158.006 17.8583 157.919 18.0619 157.715 18.3528L152.684 25.7986H144.802L153.702 12.8266L152.742 0.0290781H159.664L160.159 7.00953C160.159 7.12587 160.159 7.32947 160.246 7.32947C160.304 7.32947 160.333 7.21313 160.449 7.09679L165.423 0.0290781H173.421L164.638 11.9831L165.888 25.7986H159.053L158.326 18.4109C158.326 18.0328 158.297 17.8583 158.181 17.8583ZM116.094 20.9414C116.967 20.9414 118.363 20.3015 118.77 19.3708L119.236 18.0037C119.788 16.2877 120.428 15.0661 117.927 15.0661H113.39L111.441 20.9704L116.094 20.9414ZM125.373 0.0290781C128.805 0.0290781 129.939 2.44316 129.037 5.20625L127.583 9.42361C126.682 11.8668 123.977 12.4485 123.977 12.4485C127.234 13.0302 126.013 16.055 126.013 16.055C125.664 17.3057 125.46 18.0037 125.053 19.2253C124.5 20.9414 124.064 22.3374 123.54 23.5881C123.046 24.7806 121.388 25.7695 119.178 25.7695H102.977L111.412 0L125.373 0.0290781ZM120.05 4.82814H116.734L114.902 10.4416H118.101C120.515 10.5288 121.563 9.51086 122.115 7.79484L122.61 6.39875C122.9 5.52619 122.58 4.82814 121.912 4.82814H120.05Z" fill="black"/>
<path d="M176.359 1.94868C176.679 1.94868 176.941 1.9196 177.057 1.57057C177.144 1.27972 176.912 1.22155 176.65 1.22155H176.155L175.923 1.97777H176.359V1.94868ZM175.486 3.31569H175.137L175.923 0.901609H176.824C177.377 0.901609 177.61 1.10521 177.435 1.57057C177.29 2.00685 176.97 2.18136 176.592 2.23953L176.941 3.2866H176.534L176.243 2.23953H175.835L175.486 3.31569ZM175.748 3.83922C176.679 3.83922 177.668 3.11209 178.017 2.09411C178.337 1.10521 177.842 0.378079 176.912 0.378079C175.952 0.378079 174.963 1.13429 174.643 2.09411C174.294 3.11209 174.817 3.83922 175.748 3.83922ZM174.207 2.09411C174.585 0.901611 175.865 0.0290527 176.999 0.0290527C178.133 0.0290527 178.802 0.901611 178.424 2.09411C178.017 3.31568 176.766 4.18824 175.632 4.18824C174.498 4.18824 173.829 3.31568 174.207 2.09411Z" fill="black"/>
</g>
<defs>
<filter id="filter0_d_0_195" x="0" y="0" width="182.53" height="34.4951" filterUnits="userSpaceOnUse" color-interpolation-filters="sRGB">
<feFlood flood-opacity="0" result="BackgroundImageFix"/>
<feColorMatrix in="SourceAlpha" type="matrix" values="0 0 0 0 0 0 0 0 0 0 0 0 0 0 0 0 0 0 127 0" result="hardAlpha"/>
<feOffset dy="4"/>
<feGaussianBlur stdDeviation="2"/>
<feComposite in2="hardAlpha" operator="out"/>
<feColorMatrix type="matrix" values="0 0 0 0 0 0 0 0 0 0 0 0 0 0 0 0 0 0 0.25 0"/>
<feBlend mode="normal" in2="BackgroundImageFix" result="effect1_dropShadow_0_195"/>
<feBlend mode="normal" in="SourceGraphic" in2="effect1_dropShadow_0_195" result="shape"/>
</filter>
</defs>
</svg>
